<?xml version="1.0" encoding="UTF-8" standalone="no"?>
<svg
   height="16px"
   viewBox="0 0 16 16"
   width="16px"
   version="1.1"
   id="svg2"
   sodipodi:docname="org.gnome.Settings-color-symbolic.svg"
   inkscape:version="1.3.2 (091e20ef0f, 2023-11-25, custom)"
   xmlns:inkscape="http://www.inkscape.org/namespaces/inkscape"
   xmlns:sodipodi="http://sodipodi.sourceforge.net/DTD/sodipodi-0.dtd"
   xmlns="http://www.w3.org/2000/svg"
   xmlns:svg="http://www.w3.org/2000/svg">
  <defs
     id="defs2">
    <inkscape:path-effect
       effect="powerclip"
       id="path-effect10"
       is_visible="true"
       lpeversion="1"
       inverse="true"
       flatten="false"
       hide_clip="false"
       message="Use fill-rule evenodd on &lt;b&gt;fill and stroke&lt;/b&gt; dialogue if no flatten result after convert clip to paths." />
    <inkscape:path-effect
       effect="powerclip"
       id="path-effect7"
       is_visible="true"
       lpeversion="1"
       inverse="true"
       flatten="false"
       hide_clip="false"
       message="Use fill-rule evenodd on &lt;b&gt;fill and stroke&lt;/b&gt; dialogue if no flatten result after convert clip to paths." />
    <clipPath
       clipPathUnits="userSpaceOnUse"
       id="clipPath10">
      <rect
         style="display:none;fill:#f5c211;stroke-width:0.999025"
         id="rect10"
         width="16"
         height="6"
         x="0"
         y="5" />
      <path
         id="lpe_path-effect10"
         style="display:block;fill:#f5c211;stroke-width:0.999025"
         class="powerclip"
         d="M -5,-5 H 21.03125 V 20 H -5 Z M 0,5 v 6 H 16 V 5 Z" />
    </clipPath>
  </defs>
  <sodipodi:namedview
     id="namedview2"
     pagecolor="#ffffff"
     bordercolor="#000000"
     borderopacity="0.25"
     inkscape:showpageshadow="2"
     inkscape:pageopacity="0.0"
     inkscape:pagecheckerboard="0"
     inkscape:deskcolor="#d1d1d1"
     showgrid="true"
     inkscape:zoom="32"
     inkscape:cx="9.140625"
     inkscape:cy="5.015625"
     inkscape:window-width="2048"
     inkscape:window-height="1083"
     inkscape:window-x="0"
     inkscape:window-y="0"
     inkscape:window-maximized="1"
     inkscape:current-layer="g2">
    <inkscape:grid
       id="grid2"
       units="px"
       originx="0"
       originy="0"
       spacingx="1"
       spacingy="1"
       empcolor="#0099e5"
       empopacity="0.30196078"
       color="#0099e5"
       opacity="0.14901961"
       empspacing="5"
       dotted="false"
       gridanglex="30"
       gridanglez="30"
       visible="true" />
  </sodipodi:namedview>
  <g
     fill="#222222"
     id="g2">
    <g
       id="g10"
       style="opacity:0.5"
       clip-path="url(#clipPath10)"
       inkscape:path-effect="#path-effect10">
      <path
         d="M 8,0 C 5.796875,0 4,1.796875 4,4 4,6.203125 5.796875,8 8,8 10.203125,8 12,6.203125 12,4 12,1.796875 10.203125,0 8,0 Z M 8,1.972656 C 9.121094,1.96875 10.03125,2.878906 10.027344,4 10.03125,5.121094 9.121094,6.03125 8,6.027344 6.878906,6.03125 5.96875,5.121094 5.972656,4 5.96875,2.878906 6.878906,1.96875 8,1.972656 Z M 4,7 C 1.796875,7 0,8.796875 0,11 0,13.203125 1.796875,15 4,15 6.203125,15 8,13.203125 8,11 8,8.796875 6.203125,7 4,7 Z m 8.03125,0 c -2.210938,0 -4,1.789062 -4,4 0,2.210938 1.789062,4 4,4 2.207031,0 4,-1.792969 4,-4 0,-2.207031 -1.792969,-4 -4,-4 z M 4,8.972656 C 5.121094,8.96875 6.03125,9.878906 6.027344,11 6.03125,12.121094 5.121094,13.03125 4,13.027344 2.878906,13.03125 1.96875,12.121094 1.972656,11 1.96875,9.878906 2.878906,8.96875 4,8.972656 Z m 0,0"
         id="path1"
         clip-path="none"
         inkscape:original-d="m 8 0 c -2.203125 0 -4 1.796875 -4 4 s 1.796875 4 4 4 s 4 -1.796875 4 -4 s -1.796875 -4 -4 -4 z m 0 1.972656 c 1.121094 -0.003906 2.03125 0.90625 2.027344 2.027344 c 0.003906 1.121094 -0.90625 2.03125 -2.027344 2.027344 c -1.121094 0.003906 -2.03125 -0.90625 -2.027344 -2.027344 c -0.003906 -1.121094 0.90625 -2.03125 2.027344 -2.027344 z m -4 5.027344 c -2.203125 0 -4 1.796875 -4 4 s 1.796875 4 4 4 s 4 -1.796875 4 -4 s -1.796875 -4 -4 -4 z m 8.03125 0 c -2.210938 0 -4 1.789062 -4 4 s 1.789062 4 4 4 c 2.207031 0 4 -1.792969 4 -4 s -1.792969 -4 -4 -4 z m -8.03125 1.972656 c 1.121094 -0.003906 2.03125 0.90625 2.027344 2.027344 c 0.003906 1.121094 -0.90625 2.03125 -2.027344 2.027344 c -1.121094 0.003906 -2.03125 -0.90625 -2.027344 -2.027344 c -0.003906 -1.121094 0.90625 -2.03125 2.027344 -2.027344 z m 0 0" />
      <path
         d="M 6.5,11 C 6.5,12.382812 5.378906,13.5 4,13.5 2.617188,13.5 1.5,12.378906 1.5,11 1.5,9.621094 2.617188,8.5 4,8.5 5.378906,8.5 6.5,9.617188 6.5,11 Z m 0,0"
         fill-opacity="0.34902"
         id="path2"
         inkscape:original-d="m 6.5 11 c 0 1.382812 -1.121094 2.5 -2.5 2.5 c -1.382812 0 -2.5 -1.121094 -2.5 -2.5 s 1.117188 -2.5 2.5 -2.5 c 1.378906 0 2.5 1.117188 2.5 2.5 z m 0 0" />
    </g>
    <g
       id="g5"
       style="fill:#000000;fill-opacity:1">
      <circle
         style="fill:#000000;stroke-width:1;fill-opacity:1"
         id="path3"
         cx="8"
         cy="8"
         r="2" />
      <circle
         style="fill:#000000;stroke-width:1;fill-opacity:1"
         id="circle4"
         cx="13"
         cy="8"
         r="2" />
      <circle
         style="fill:#000000;stroke-width:1;fill-opacity:1"
         id="circle5"
         cx="3"
         cy="8"
         r="2" />
    </g>
  </g>
</svg>
